<svg width="428" height="244.35" viewBox="-8.8 0 436.8 250.1" xmlns="http://www.w3.org/2000/svg" xmlns:xlink="http://www.w3.org/1999/xlink" overflow="hidden"><defs><marker refX="10" refY="5" markerWidth="8.8" markerHeight="8.8" orient="auto" viewBox="0 0 10 10" id="arrow" overflow="hidden"><path d="M0 0 10 5 0 10"/></marker><marker refX="5" refY="5" markerWidth="8.8" markerHeight="8.8" orient="auto" viewBox="0 0 10 10" id="arrowBackward" overflow="hidden"><path d="M0 0 10 5 0 10Z"/></marker><marker refX="5" refY="5" markerWidth="8.8" markerHeight="8.8" orient="auto" viewBox="0 0 10 10" id="arrowForward" overflow="hidden"><path d="M10 0 0 5 10 10Z"/></marker><marker refX="15" refY="5" markerWidth="26.4" markerHeight="8.8" orient="auto" viewBox="0 0 30 10" id="arrowBothways" overflow="hidden"><path d="M0 5 10 0 10 5 20 5 20 0 30 5 20 10 20 5 10 5 10 10Z"/></marker><pattern x="10" y="10" width="10" height="10" patternUnits="userSpaceOnUse" id="hatchBlack" overflow="hidden" patternTransform="matrix(0.707107 0.707107 -0.707107 0.707107 0 0)"><line x1="0" y1="0" x2="0" y2="10" stroke="#000000" stroke-width="4"/></pattern><pattern x="10" y="10" width="10" height="10" patternUnits="userSpaceOnUse" id="hatchForNode" overflow="hidden" patternTransform="matrix(0.707107 0.707107 -0.707107 0.707107 0 0)"><line x1="0" y1="0" x2="0" y2="10" stroke="#000000" stroke-width="4"/></pattern><pattern x="10" y="10" width="10" height="10" patternUnits="userSpaceOnUse" id="hatchForLeaf" overflow="hidden" patternTransform="matrix(0.707107 0.707107 -0.707107 0.707107 0 0)"><line x1="0" y1="0" x2="0" y2="10" stroke="#000000" stroke-width="4"/></pattern></defs><rect x="-8.8" y="0" width="436.8" height="250.1" fill="#FFFFFF"/><text font-size="16" xml:space="preserve" x="143.2" y="34.5"><tspan font-family="Noto Serif,Noto Serif JP,OpenMoji,OpenMoji Color,OpenMoji Black,Times New Roman" x="143.2" y="34.5">音节</tspan> </text><text font-size="16" xml:space="preserve" x="8.8" y="99.9"><tspan font-family="Noto Serif,Noto Serif JP,OpenMoji,OpenMoji Color,OpenMoji Black,Times New Roman" x="8.8" y="99.9">首音</tspan> </text><text font-size="16" xml:space="preserve" x="8.8" y="165.3"><tspan font-family="Noto Serif,Noto Serif JP,OpenMoji,OpenMoji Color,OpenMoji Black,Times New Roman" x="8.8" y="165.3">首音</tspan> </text><text font-size="16" xml:space="preserve" x="8.8" y="230.7"><tspan font-family="Noto Serif,Noto Serif JP,OpenMoji,OpenMoji Color,OpenMoji Black,Times New Roman" x="8.8" y="230.7">首音</tspan> </text><text font-size="16" xml:space="preserve" x="277.6" y="99.9"><tspan font-family="Noto Serif,Noto Serif JP,OpenMoji,OpenMoji Color,OpenMoji Black,Times New Roman" x="277.6" y="99.9">干音</tspan> </text><text font-size="16" xml:space="preserve" x="210.4" y="165.3"><tspan font-family="Noto Serif,Noto Serif JP,OpenMoji,OpenMoji Color,OpenMoji Black,Times New Roman" x="210.4" y="165.3">呼音</tspan> </text><text font-size="16" xml:space="preserve" x="210.4" y="230.7"><tspan font-family="Noto Serif,Noto Serif JP,OpenMoji,OpenMoji Color,OpenMoji Black,Times New Roman" x="210.4" y="230.7">呼音</tspan> </text><text font-size="16" xml:space="preserve" x="344.8" y="165.3"><tspan font-family="Noto Serif,Noto Serif JP,OpenMoji,OpenMoji Color,OpenMoji Black,Times New Roman" x="344.8" y="165.3">韵音</tspan> </text><text font-size="16" xml:space="preserve" x="311.2" y="230.7"><tspan font-family="Noto Serif,Noto Serif JP,OpenMoji,OpenMoji Color,OpenMoji Black,Times New Roman" x="311.2" y="230.7">主音</tspan> </text><text font-size="16" xml:space="preserve" x="378.4" y="230.7"><tspan font-family="Noto Serif,Noto Serif JP,OpenMoji,OpenMoji Color,OpenMoji Black,Times New Roman" x="378.4" y="230.7">末音</tspan> </text><line x1="24.8" y1="71.15" x2="159.2" y2="48.875" stroke="#000000" stroke-width="2" stroke-linecap="round" stroke-linejoin="round" fill="none"/><line x1="293.6" y1="71.15" x2="159.2" y2="48.875" stroke="#000000" stroke-width="2" stroke-linecap="round" stroke-linejoin="round" fill="none"/><line x1="24.8" y1="136.55" x2="24.8" y2="114.275" stroke="#000000" stroke-width="2" stroke-linecap="round" stroke-linejoin="round" fill="none"/><line x1="24.8" y1="201.95" x2="24.8" y2="179.675" stroke="#000000" stroke-width="2" stroke-linecap="round" stroke-linejoin="round" fill="none"/><line x1="226.4" y1="136.55" x2="293.6" y2="114.275" stroke="#000000" stroke-width="2" stroke-linecap="round" stroke-linejoin="round" fill="none"/><line x1="360.8" y1="136.55" x2="293.6" y2="114.275" stroke="#000000" stroke-width="2" stroke-linecap="round" stroke-linejoin="round" fill="none"/><line x1="226.4" y1="201.95" x2="226.4" y2="179.675" stroke="#000000" stroke-width="2" stroke-linecap="round" stroke-linejoin="round" fill="none"/><line x1="327.2" y1="201.95" x2="360.8" y2="179.675" stroke="#000000" stroke-width="2" stroke-linecap="round" stroke-linejoin="round" fill="none"/><line x1="394.4" y1="201.95" x2="360.8" y2="179.675" stroke="#000000" stroke-width="2" stroke-linecap="round" stroke-linejoin="round" fill="none"/></svg>