<svg width="1578" height="797" xmlns="http://www.w3.org/2000/svg" xmlns:xlink="http://www.w3.org/1999/xlink" xml:space="preserve" overflow="hidden"><defs><clipPath id="clip0"><rect x="97" y="50" width="1426" height="547"/></clipPath><clipPath id="clip1"><rect x="97" y="50" width="1426" height="547"/></clipPath><clipPath id="clip2"><rect x="97" y="50" width="1426" height="547"/></clipPath><clipPath id="clip3"><rect x="97" y="50" width="1426" height="547"/></clipPath></defs><g transform="translate(1 1)"><rect x="0" y="0" width="1575" height="794" fill="#FFFFFF"/><g><path d="M97.5001 485.516 1519.5 485.516M97.5001 376.513 1519.5 376.513M97.5001 267.509 1519.5 267.509M97.5001 159.505 1519.5 159.505M97.5001 50.5 1519.5 50.5" stroke="#D9D9D9" stroke-width="3.4375" stroke-linejoin="round" stroke-miterlimit="10" fill="none"/></g><g><path d="M239.508 50.5 239.508 594.5M382.513 50.5 382.513 594.5M524.517 50.5 524.517 594.5M666.522 50.5 666.522 594.5M808.527 50.5 808.527 594.5M950.531 50.5 950.531 594.5M1093.54 50.5 1093.54 594.5M1235.54 50.5 1235.54 594.5M1377.55 50.5 1377.55 594.5M1519.5 50.5 1519.5 594.5" stroke="#D9D9D9" stroke-width="3.4375" stroke-linejoin="round" stroke-miterlimit="10" fill="none"/></g><g><path d="M0 0 0.000360892 544" stroke="#D9D9D9" stroke-width="3.4375" stroke-linejoin="round" stroke-miterlimit="10" fill="none" fill-rule="evenodd" transform="matrix(1 0 0 -1 97.5001 594.5)"/></g><g><path d="M97.5001 594.5 1519.5 594.5" stroke="#D9D9D9" stroke-width="3.4375" stroke-linejoin="round" stroke-miterlimit="10" fill="none" fill-rule="evenodd"/></g><g clip-path="url(#clip0)"><path d="M311 78C334.708 73.4285 405.833 55.1428 453.25 50.5716 500.667 46.0001 548.083 50.5716 595.5 50.5716 642.917 50.5716 690.333 50.5716 737.75 50.5716 785.167 50.5716 832.583 50.5716 880 50.5716 927.416 50.5716 974.833 50.5716 1022.25 50.5716 1069.67 50.5716 1117.08 50.5716 1164.5 50.5716 1211.92 50.5716 1259.33 46.0001 1306.75 50.5716 1354.17 55.1428 1401.58 68.857 1449 78" stroke="#C0504D" stroke-width="8.02083" stroke-linecap="round" stroke-linejoin="round" stroke-miterlimit="10" fill="none"/></g><g><path d="M296.5 63.5005 322.5 63.5005 322.5 89.4999 296.5 89.4999Z" stroke="#C0504D" stroke-width="3.4375" stroke-linejoin="round" stroke-miterlimit="10" fill="#C0504D"/><path d="M439.5 36.5003 465.5 36.5003 465.5 62.4997 439.5 62.4997Z" stroke="#C0504D" stroke-width="3.4375" stroke-linejoin="round" stroke-miterlimit="10" fill="#C0504D"/><path d="M581.5 36.5003 607.5 36.5003 607.5 62.4997 581.5 62.4997Z" stroke="#C0504D" stroke-width="3.4375" stroke-linejoin="round" stroke-miterlimit="10" fill="#C0504D"/><path d="M723.5 36.5003 749.5 36.5003 749.5 62.4997 723.5 62.4997Z" stroke="#C0504D" stroke-width="3.4375" stroke-linejoin="round" stroke-miterlimit="10" fill="#C0504D"/><path d="M865.5 36.5003 891.5 36.5003 891.5 62.4997 865.5 62.4997Z" stroke="#C0504D" stroke-width="3.4375" stroke-linejoin="round" stroke-miterlimit="10" fill="#C0504D"/><path d="M1007.5 36.5003 1033.5 36.5003 1033.5 62.4997 1007.5 62.4997Z" stroke="#C0504D" stroke-width="3.4375" stroke-linejoin="round" stroke-miterlimit="10" fill="#C0504D"/><path d="M1150.5 36.5003 1176.5 36.5003 1176.5 62.4997 1150.5 62.4997Z" stroke="#C0504D" stroke-width="3.4375" stroke-linejoin="round" stroke-miterlimit="10" fill="#C0504D"/><path d="M1292.5 36.5003 1318.5 36.5003 1318.5 62.4997 1292.5 62.4997Z" stroke="#C0504D" stroke-width="3.4375" stroke-linejoin="round" stroke-miterlimit="10" fill="#C0504D"/><path d="M1434.5 63.5005 1460.5 63.5005 1460.5 89.4999 1434.5 89.4999Z" stroke="#C0504D" stroke-width="3.4375" stroke-linejoin="round" stroke-miterlimit="10" fill="#C0504D"/></g><g clip-path="url(#clip1)"><path d="M311 300C334.708 294.565 405.833 278.261 453.25 267.391 500.667 256.522 548.083 246.014 595.5 234.783 642.917 223.55 690.333 212.681 737.75 200 785.167 187.319 832.583 172.826 880 158.695 927.416 144.565 974.833 128.804 1022.25 115.217 1069.67 101.63 1117.08 88.0432 1164.5 77.1737 1211.92 66.304 1259.33 49.9998 1306.75 49.9998 1354.17 49.9998 1401.58 68.1155 1449 77.1737" stroke="#9BBB59" stroke-width="8.02083" stroke-linecap="round" stroke-linejoin="round" stroke-miterlimit="10" fill="none"/></g><g><path d="M310.5 277.5 333.499 323.499 287.5 323.499Z" stroke="#9BBB59" stroke-width="3.4375" stroke-linejoin="round" stroke-miterlimit="10" fill="#9BBB59"/><path d="M453.5 244.5 476.499 290.499 430.5 290.499Z" stroke="#9BBB59" stroke-width="3.4375" stroke-linejoin="round" stroke-miterlimit="10" fill="#9BBB59"/><path d="M595.5 212.5 618.499 258.499 572.5 258.499Z" stroke="#9BBB59" stroke-width="3.4375" stroke-linejoin="round" stroke-miterlimit="10" fill="#9BBB59"/><path d="M737.5 177.5 760.5 223.499 714.5 223.499Z" stroke="#9BBB59" stroke-width="3.4375" stroke-linejoin="round" stroke-miterlimit="10" fill="#9BBB59"/><path d="M879.5 136.5 902.5 182.499 856.5 182.499Z" stroke="#9BBB59" stroke-width="3.4375" stroke-linejoin="round" stroke-miterlimit="10" fill="#9BBB59"/><path d="M1021.5 92.5003 1044.5 138.499 998.5 138.499Z" stroke="#9BBB59" stroke-width="3.4375" stroke-linejoin="round" stroke-miterlimit="10" fill="#9BBB59"/><path d="M1164.5 54.5005 1187.5 100.5 1141.5 100.5Z" stroke="#9BBB59" stroke-width="3.4375" stroke-linejoin="round" stroke-miterlimit="10" fill="#9BBB59"/><path d="M1306.5 27.5004 1329.5 73.4993 1283.5 73.4993Z" stroke="#9BBB59" stroke-width="3.4375" stroke-linejoin="round" stroke-miterlimit="10" fill="#9BBB59"/><path d="M1448.5 54.5005 1471.5 100.5 1425.5 100.5Z" stroke="#9BBB59" stroke-width="3.4375" stroke-linejoin="round" stroke-miterlimit="10" fill="#9BBB59"/></g><g><path d="M311 322C334.708 331.05 405.833 358.2 453.25 376.3 500.667 394.4 548.083 412.5 595.5 430.6 642.917 448.7 690.333 475.85 737.75 484.9 785.167 493.95 832.583 484.9 880 484.9 927.416 484.9 974.833 484.9 1022.25 484.9 1069.67 484.9 1117.08 484.9 1164.5 484.9 1211.92 484.9 1259.33 503 1306.75 484.9 1354.17 466.8 1401.58 412.5 1449 376.3" stroke="#8064A2" stroke-width="8.02083" stroke-linecap="round" stroke-linejoin="round" stroke-miterlimit="10" fill="none"/></g><g><path d="M330.999 342.999 289.999 301.999M289.999 342.999 330.999 301.999" stroke="#8064A2" stroke-width="3.4375" stroke-linejoin="round" stroke-miterlimit="10" fill="none"/><path d="M473.999 396.999 432.999 355.999M432.999 396.999 473.999 355.999" stroke="#8064A2" stroke-width="3.4375" stroke-linejoin="round" stroke-miterlimit="10" fill="none"/><path d="M615.999 450.999 574.999 409.999M574.999 450.999 615.999 409.999" stroke="#8064A2" stroke-width="3.4375" stroke-linejoin="round" stroke-miterlimit="10" fill="none"/><path d="M758 505.999 717 464.999M717 505.999 758 464.999" stroke="#8064A2" stroke-width="3.4375" stroke-linejoin="round" stroke-miterlimit="10" fill="none"/><path d="M900 505.999 859 464.999M859 505.999 900 464.999" stroke="#8064A2" stroke-width="3.4375" stroke-linejoin="round" stroke-miterlimit="10" fill="none"/><path d="M1042 505.999 1001 464.999M1001 505.999 1042 464.999" stroke="#8064A2" stroke-width="3.4375" stroke-linejoin="round" stroke-miterlimit="10" fill="none"/><path d="M1185 505.999 1144 464.999M1144 505.999 1185 464.999" stroke="#8064A2" stroke-width="3.4375" stroke-linejoin="round" stroke-miterlimit="10" fill="none"/><path d="M1327 505.999 1286 464.999M1286 505.999 1327 464.999" stroke="#8064A2" stroke-width="3.4375" stroke-linejoin="round" stroke-miterlimit="10" fill="none"/><path d="M1469 396.999 1428 355.999M1428 396.999 1469 355.999" stroke="#8064A2" stroke-width="3.4375" stroke-linejoin="round" stroke-miterlimit="10" fill="none"/></g><g clip-path="url(#clip2)"><path d="M311 77.7101C334.708 73.18 405.833 55.0599 453.25 50.5302 500.667 46.0001 548.083 46.0001 595.5 50.5302 642.917 55.0599 690.333 59.59 737.75 77.7101 785.167 95.8299 832.583 118.48 880 159.25 927.416 200.02 974.833 272.5 1022.25 322.33 1069.67 372.16 1117.08 431.049 1164.5 458.23 1211.92 485.41 1259.33 499 1306.75 485.41 1354.17 471.82 1401.58 412.93 1449 376.69" stroke="#4BACC6" stroke-width="8.02083" stroke-linecap="round" stroke-linejoin="round" stroke-miterlimit="10" fill="none"/></g><g><path d="M330.999 97.9996 289.999 56.9997M310.5 56.9997 310.5 97.9996M289.999 97.9996 330.999 56.9997" stroke="#4BACC6" stroke-width="3.4375" stroke-linejoin="round" stroke-miterlimit="10" fill="none"/><path d="M473.999 70.9994 432.999 29.9995M453.5 29.9995 453.5 70.9994M432.999 70.9994 473.999 29.9995" stroke="#4BACC6" stroke-width="3.4375" stroke-linejoin="round" stroke-miterlimit="10" fill="none"/><path d="M615.999 70.9994 574.999 29.9995M595.5 29.9995 595.5 70.9994M574.999 70.9994 615.999 29.9995" stroke="#4BACC6" stroke-width="3.4375" stroke-linejoin="round" stroke-miterlimit="10" fill="none"/><path d="M758 97.9996 717 56.9997M737.5 56.9997 737.5 97.9996M717 97.9996 758 56.9997" stroke="#4BACC6" stroke-width="3.4375" stroke-linejoin="round" stroke-miterlimit="10" fill="none"/><path d="M900 179.999 859 139M879.5 139 879.5 179.999M859 179.999 900 139" stroke="#4BACC6" stroke-width="3.4375" stroke-linejoin="round" stroke-miterlimit="10" fill="none"/><path d="M1042 342.999 1001 301.999M1021.5 301.999 1021.5 342.999M1001 342.999 1042 301.999" stroke="#4BACC6" stroke-width="3.4375" stroke-linejoin="round" stroke-miterlimit="10" fill="none"/><path d="M1185 478.999 1144 438M1164.5 438 1164.5 478.999M1144 478.999 1185 438" stroke="#4BACC6" stroke-width="3.4375" stroke-linejoin="round" stroke-miterlimit="10" fill="none"/><path d="M1327 505.999 1286 464.999M1306.5 464.999 1306.5 505.999M1286 505.999 1327 464.999" stroke="#4BACC6" stroke-width="3.4375" stroke-linejoin="round" stroke-miterlimit="10" fill="none"/><path d="M1469 396.999 1428 355.999M1448.5 355.999 1448.5 396.999M1428 396.999 1469 355.999" stroke="#4BACC6" stroke-width="3.4375" stroke-linejoin="round" stroke-miterlimit="10" fill="none"/></g><g><path d="M311 321.973C334.708 331.027 405.833 358.189 453.25 376.297 500.667 394.405 548.083 412.513 595.5 430.622 642.917 448.729 690.333 475.892 737.75 484.946 785.167 494 832.583 484.946 880 484.946 927.416 484.946 974.833 489.473 1022.25 484.946 1069.67 480.419 1117.08 484.946 1164.5 457.784 1211.92 430.621 1259.33 371.77 1306.75 321.973 1354.17 272.176 1401.58 213.324 1449 159" stroke="#F79646" stroke-width="8.02083" stroke-linecap="round" stroke-linejoin="round" stroke-miterlimit="10" fill="none"/></g><g><path d="M322.5 321.5C322.5 328.679 316.679 334.5 309.5 334.5 302.32 334.5 296.5 328.679 296.5 321.5 296.5 314.32 302.32 308.5 309.5 308.5 316.679 308.5 322.5 314.32 322.5 321.5Z" stroke="#F79646" stroke-width="3.4375" stroke-linejoin="round" stroke-miterlimit="10" fill="#F79646"/><path d="M465.5 375.5C465.5 382.679 459.679 388.5 452.5 388.5 445.32 388.5 439.5 382.679 439.5 375.5 439.5 368.32 445.32 362.5 452.5 362.5 459.679 362.5 465.5 368.32 465.5 375.5Z" stroke="#F79646" stroke-width="3.4375" stroke-linejoin="round" stroke-miterlimit="10" fill="#F79646"/><path d="M607.5 429.5C607.5 436.679 601.679 442.5 594.5 442.5 587.32 442.5 581.5 436.679 581.5 429.5 581.5 422.32 587.32 416.5 594.5 416.5 601.679 416.5 607.5 422.32 607.5 429.5Z" stroke="#F79646" stroke-width="3.4375" stroke-linejoin="round" stroke-miterlimit="10" fill="#F79646"/><path d="M749.5 484.5C749.5 491.679 743.68 497.5 736.5 497.5 729.321 497.5 723.5 491.679 723.5 484.5 723.5 477.32 729.321 471.5 736.5 471.5 743.68 471.5 749.5 477.32 749.5 484.5Z" stroke="#F79646" stroke-width="3.4375" stroke-linejoin="round" stroke-miterlimit="10" fill="#F79646"/><path d="M891.5 484.5C891.5 491.679 885.68 497.5 878.5 497.5 871.321 497.5 865.5 491.679 865.5 484.5 865.5 477.32 871.321 471.5 878.5 471.5 885.68 471.5 891.5 477.32 891.5 484.5Z" stroke="#F79646" stroke-width="3.4375" stroke-linejoin="round" stroke-miterlimit="10" fill="#F79646"/><path d="M1033.5 484.5C1033.5 491.679 1027.68 497.5 1020.5 497.5 1013.32 497.5 1007.5 491.679 1007.5 484.5 1007.5 477.32 1013.32 471.5 1020.5 471.5 1027.68 471.5 1033.5 477.32 1033.5 484.5Z" stroke="#F79646" stroke-width="3.4375" stroke-linejoin="round" stroke-miterlimit="10" fill="#F79646"/><path d="M1176.5 457.5C1176.5 464.68 1170.68 470.5 1163.5 470.5 1156.32 470.5 1150.5 464.68 1150.5 457.5 1150.5 450.32 1156.32 444.5 1163.5 444.5 1170.68 444.5 1176.5 450.32 1176.5 457.5Z" stroke="#F79646" stroke-width="3.4375" stroke-linejoin="round" stroke-miterlimit="10" fill="#F79646"/><path d="M1318.5 321.5C1318.5 328.679 1312.68 334.5 1305.5 334.5 1298.32 334.5 1292.5 328.679 1292.5 321.5 1292.5 314.32 1298.32 308.5 1305.5 308.5 1312.68 308.5 1318.5 314.32 1318.5 321.5Z" stroke="#F79646" stroke-width="3.4375" stroke-linejoin="round" stroke-miterlimit="10" fill="#F79646"/><path d="M1460.5 158.5C1460.5 165.68 1454.68 171.5 1447.5 171.5 1440.32 171.5 1434.5 165.68 1434.5 158.5 1434.5 151.32 1440.32 145.5 1447.5 145.5 1454.68 145.5 1460.5 151.32 1460.5 158.5Z" stroke="#F79646" stroke-width="3.4375" stroke-linejoin="round" stroke-miterlimit="10" fill="#F79646"/></g><g clip-path="url(#clip3)"><path d="M311 78.0026 453.015 49.9998 595.02 49.9998 738.024 78.0026 880.029 159.005 1022.03 213.007 1164.04 246.008 1306.04 268 1449 268" stroke="#2C4D75" stroke-width="8.02083" stroke-linecap="round" stroke-linejoin="round" stroke-miterlimit="10" fill="none"/></g><g><path d="M310.5 63.9999 310.5 90.9997M297 77.4998 323.999 77.4998" stroke="#2C4D75" stroke-width="3.4375" stroke-linejoin="round" stroke-miterlimit="10" fill="none"/><path d="M453.5 36.9998 453.5 63.9996M440 50.4997 466.999 50.4997" stroke="#2C4D75" stroke-width="3.4375" stroke-linejoin="round" stroke-miterlimit="10" fill="none"/><path d="M595.5 36.9998 595.5 63.9996M582 50.4997 608.999 50.4997" stroke="#2C4D75" stroke-width="3.4375" stroke-linejoin="round" stroke-miterlimit="10" fill="none"/><path d="M737.5 63.9999 737.5 90.9997M724 77.4998 751 77.4998" stroke="#2C4D75" stroke-width="3.4375" stroke-linejoin="round" stroke-miterlimit="10" fill="none"/><path d="M879.5 146 879.5 173M866 159.5 893 159.5" stroke="#2C4D75" stroke-width="3.4375" stroke-linejoin="round" stroke-miterlimit="10" fill="none"/><path d="M1021.5 200 1021.5 227M1008 213.5 1035 213.5" stroke="#2C4D75" stroke-width="3.4375" stroke-linejoin="round" stroke-miterlimit="10" fill="none"/><path d="M1164.5 233 1164.5 260M1151 246.5 1178 246.5" stroke="#2C4D75" stroke-width="3.4375" stroke-linejoin="round" stroke-miterlimit="10" fill="none"/><path d="M1306.5 254 1306.5 280.999M1293 267.5 1320 267.5" stroke="#2C4D75" stroke-width="3.4375" stroke-linejoin="round" stroke-miterlimit="10" fill="none"/><path d="M1448.5 254 1448.5 280.999M1435 267.5 1462 267.5" stroke="#2C4D75" stroke-width="3.4375" stroke-linejoin="round" stroke-miterlimit="10" fill="none"/></g><g><text fill="#595959" font-family="Calibri,Calibri_MSFontService,sans-serif" font-weight="400" font-size="41" transform="matrix(1 0 0 1 38.5339 606)">0</text></g><g><text fill="#595959" font-family="Calibri,Calibri_MSFontService,sans-serif" font-weight="400" font-size="41" transform="matrix(1 0 0 1 38.5339 497)">1</text></g><g><text fill="#595959" font-family="Calibri,Calibri_MSFontService,sans-serif" font-weight="400" font-size="41" transform="matrix(1 0 0 1 38.5339 388)">2</text></g><g><text fill="#595959" font-family="Calibri,Calibri_MSFontService,sans-serif" font-weight="400" font-size="41" transform="matrix(1 0 0 1 38.5339 279)">3</text></g><g><text fill="#595959" font-family="Calibri,Calibri_MSFontService,sans-serif" font-weight="400" font-size="41" transform="matrix(1 0 0 1 38.5339 171)">4</text></g><g><text fill="#595959" font-family="Calibri,Calibri_MSFontService,sans-serif" font-weight="400" font-size="41" transform="matrix(1 0 0 1 38.5339 62)">5</text></g><g><text fill="#595959" font-family="SimSun,SimSun_MSFontService,sans-serif" font-weight="400" font-size="37" transform="matrix(1 0 0 1 126.634 654)">首调</text></g><g><text fill="#595959" font-family="SimSun,SimSun_MSFontService,sans-serif" font-weight="400" font-size="37" transform="matrix(1 0 0 1 837.629 654)">间调</text></g><g><text fill="#595959" font-family="SimSun,SimSun_MSFontService,sans-serif" font-weight="400" font-size="37" transform="matrix(1 0 0 1 1264.23 654)">末调</text></g><g><path d="M107 728 195 728" stroke="#C0504D" stroke-width="8.02083" stroke-linecap="round" stroke-linejoin="round" stroke-miterlimit="10" fill="none" fill-rule="evenodd"/></g><g><path d="M140.505 716.524 162.506 716.524 162.506 738.524 140.505 738.524Z" stroke="#C0504D" stroke-width="3.4375" stroke-linejoin="round" stroke-miterlimit="10" fill="#C0504D"/></g><g><text fill="#595959" font-family="SimSun,SimSun_MSFontService,sans-serif" font-weight="400" font-size="41" transform="matrix(1 0 0 1 204.409 741)">阴平</text></g><g><path d="M314 728 402 728" stroke="#9BBB59" stroke-width="8.02083" stroke-linecap="round" stroke-linejoin="round" stroke-miterlimit="10" fill="none" fill-rule="evenodd"/></g><g><path d="M357.5 716.5 368.499 738.499 346.5 738.499Z" stroke="#9BBB59" stroke-width="3.4375" stroke-linejoin="round" stroke-miterlimit="10" fill="#9BBB59"/></g><g><text fill="#595959" font-family="SimSun,SimSun_MSFontService,sans-serif" font-weight="400" font-size="41" transform="matrix(1 0 0 1 410.845 741)">阳平</text></g><g><path d="M520 728 608 728" stroke="#8064A2" stroke-width="8.02083" stroke-linecap="round" stroke-linejoin="round" stroke-miterlimit="10" fill="none" fill-rule="evenodd"/></g><g><path d="M574.5 738.5 551.5 715.5M551.5 738.5 574.5 715.5" stroke="#8064A2" stroke-width="3.4375" stroke-linejoin="round" stroke-miterlimit="10" fill="none"/></g><g><text fill="#595959" font-family="SimSun,SimSun_MSFontService,sans-serif" font-weight="400" font-size="41" transform="matrix(1 0 0 1 617.281 741)">上声</text></g><g><path d="M726 728 814 728" stroke="#4BACC6" stroke-width="8.02083" stroke-linecap="round" stroke-linejoin="round" stroke-miterlimit="10" fill="none" fill-rule="evenodd"/></g><g><path d="M781.5 738.5 759.5 715.5M770.525 715.5 770.525 738.5M759.5 738.5 781.5 715.5" stroke="#4BACC6" stroke-width="3.4375" stroke-linejoin="round" stroke-miterlimit="10" fill="none"/></g><g><text fill="#595959" font-family="SimSun,SimSun_MSFontService,sans-serif" font-weight="400" font-size="41" transform="matrix(1 0 0 1 823.717 741)">去声</text></g><g><path d="M933 728 1021 728" stroke="#F79646" stroke-width="8.02083" stroke-linecap="round" stroke-linejoin="round" stroke-miterlimit="10" fill="none" fill-rule="evenodd"/></g><g><path d="M987 726.999C987 733.075 982.075 737.999 976 737.999 969.925 737.999 965 733.075 965 726.999 965 720.924 969.925 716 976 716 982.075 716 987 720.924 987 726.999Z" stroke="#F79646" stroke-width="3.4375" stroke-linejoin="round" stroke-miterlimit="10" fill="#F79646"/></g><g><text fill="#595959" font-family="SimSun,SimSun_MSFontService,sans-serif" font-weight="400" font-size="41" transform="matrix(1 0 0 1 1030.15 741)">上声变调</text></g><g><path d="M1222 728 1310 728" stroke="#2C4D75" stroke-width="8.02083" stroke-linecap="round" stroke-linejoin="round" stroke-miterlimit="10" fill="none" fill-rule="evenodd"/></g><g><path d="M1265.54 715.5 1265.54 738.5M1254.5 727.524 1276.5 727.524" stroke="#2C4D75" stroke-width="3.4375" stroke-linejoin="round" stroke-miterlimit="10" fill="none"/></g><g><text fill="#595959" font-family="SimSun,SimSun_MSFontService,sans-serif" font-weight="400" font-size="41" transform="matrix(1 0 0 1 1319.09 741)">去声变调</text></g><rect x="0.499836" y="0.499836" width="1575" height="794" stroke="#D9D9D9" stroke-width="3.4375" stroke-linejoin="round" stroke-miterlimit="10" fill="none"/></g></svg>