<svg width="1578" height="797" xmlns="http://www.w3.org/2000/svg" xmlns:xlink="http://www.w3.org/1999/xlink" xml:space="preserve" overflow="hidden"><defs><clipPath id="clip0"><rect x="97" y="50" width="1426" height="547"/></clipPath><clipPath id="clip1"><rect x="97" y="50" width="1426" height="547"/></clipPath><clipPath id="clip2"><rect x="97" y="50" width="1426" height="547"/></clipPath><clipPath id="clip3"><rect x="97" y="50" width="1426" height="547"/></clipPath></defs><g transform="translate(1 1)"><rect x="0" y="0" width="1575" height="794" fill="#FFFFFF"/><g><path d="M97.5001 485.516 1519.5 485.516M97.5001 376.513 1519.5 376.513M97.5001 267.509 1519.5 267.509M97.5001 159.505 1519.5 159.505M97.5001 50.5 1519.5 50.5" stroke="#D9D9D9" stroke-width="3.4375" stroke-linejoin="round" stroke-miterlimit="10" fill="none"/></g><g><path d="M239.508 50.5 239.508 594.5M382.513 50.5 382.513 594.5M524.517 50.5 524.517 594.5M666.522 50.5 666.522 594.5M808.527 50.5 808.527 594.5M950.531 50.5 950.531 594.5M1093.54 50.5 1093.54 594.5M1235.54 50.5 1235.54 594.5M1377.55 50.5 1377.55 594.5M1519.5 50.5 1519.5 594.5" stroke="#D9D9D9" stroke-width="3.4375" stroke-linejoin="round" stroke-miterlimit="10" fill="none"/></g><g><path d="M0 0 0.000360892 544" stroke="#D9D9D9" stroke-width="3.4375" stroke-linejoin="round" stroke-miterlimit="10" fill="none" fill-rule="evenodd" transform="matrix(1 0 0 -1 97.5001 594.5)"/></g><g><path d="M97.5001 594.5 1519.5 594.5" stroke="#D9D9D9" stroke-width="3.4375" stroke-linejoin="round" stroke-miterlimit="10" fill="none" fill-rule="evenodd"/></g><g clip-path="url(#clip0)"><path d="M311 78C334.708 73.4285 405.833 55.1428 453.25 50.5716 500.667 46.0001 548.083 50.5716 595.5 50.5716 642.917 50.5716 690.333 50.5716 737.75 50.5716 785.167 50.5716 832.583 50.5716 880 50.5716 927.416 50.5716 974.833 50.5716 1022.25 50.5716 1069.67 50.5716 1117.08 50.5716 1164.5 50.5716 1211.92 50.5716 1259.33 46.0001 1306.75 50.5716 1354.17 55.1428 1401.58 68.857 1449 78" stroke="#4F81BD" stroke-width="8.02083" stroke-linecap="round" stroke-linejoin="round" stroke-miterlimit="10" fill="none"/></g><g><path d="M310.5 57.4999 330.499 77.4998 310.5 97.4994 290.5 77.4998Z" stroke="#4F81BD" stroke-width="3.4375" stroke-linejoin="round" stroke-miterlimit="10" fill="#4F81BD"/><path d="M453.5 30.4997 473.499 50.4997 453.5 70.4992 433.5 50.4997Z" stroke="#4F81BD" stroke-width="3.4375" stroke-linejoin="round" stroke-miterlimit="10" fill="#4F81BD"/><path d="M595.5 30.4997 615.499 50.4997 595.5 70.4992 575.5 50.4997Z" stroke="#4F81BD" stroke-width="3.4375" stroke-linejoin="round" stroke-miterlimit="10" fill="#4F81BD"/><path d="M737.5 30.4997 757.499 50.4997 737.5 70.4992 717.5 50.4997Z" stroke="#4F81BD" stroke-width="3.4375" stroke-linejoin="round" stroke-miterlimit="10" fill="#4F81BD"/><path d="M879.5 30.4997 899.499 50.4997 879.5 70.4992 859.5 50.4997Z" stroke="#4F81BD" stroke-width="3.4375" stroke-linejoin="round" stroke-miterlimit="10" fill="#4F81BD"/><path d="M1021.5 30.4997 1041.5 50.4997 1021.5 70.4992 1001.5 50.4997Z" stroke="#4F81BD" stroke-width="3.4375" stroke-linejoin="round" stroke-miterlimit="10" fill="#4F81BD"/><path d="M1164.5 30.4997 1184.5 50.4997 1164.5 70.4992 1144.5 50.4997Z" stroke="#4F81BD" stroke-width="3.4375" stroke-linejoin="round" stroke-miterlimit="10" fill="#4F81BD"/><path d="M1306.5 30.4997 1326.5 50.4997 1306.5 70.4992 1286.5 50.4997Z" stroke="#4F81BD" stroke-width="3.4375" stroke-linejoin="round" stroke-miterlimit="10" fill="#4F81BD"/><path d="M1448.5 57.4999 1468.5 77.4998 1448.5 97.4994 1428.5 77.4998Z" stroke="#4F81BD" stroke-width="3.4375" stroke-linejoin="round" stroke-miterlimit="10" fill="#4F81BD"/></g><g clip-path="url(#clip1)"><path d="M311 300C334.708 294.565 405.833 278.261 453.25 267.391 500.667 256.522 548.083 246.014 595.5 234.783 642.917 223.55 690.333 212.681 737.75 200 785.167 187.319 832.583 172.826 880 158.695 927.416 144.565 974.833 128.804 1022.25 115.217 1069.67 101.63 1117.08 88.0432 1164.5 77.1737 1211.92 66.304 1259.33 49.9998 1306.75 49.9998 1354.17 49.9998 1401.58 68.1155 1449 77.1737" stroke="#C0504D" stroke-width="8.02083" stroke-linecap="round" stroke-linejoin="round" stroke-miterlimit="10" fill="none"/></g><g><path d="M296.5 286.5 322.5 286.5 322.5 312.5 296.5 312.5Z" stroke="#C0504D" stroke-width="3.4375" stroke-linejoin="round" stroke-miterlimit="10" fill="#C0504D"/><path d="M439.5 253.5 465.5 253.5 465.5 279.5 439.5 279.5Z" stroke="#C0504D" stroke-width="3.4375" stroke-linejoin="round" stroke-miterlimit="10" fill="#C0504D"/><path d="M581.5 221.5 607.5 221.5 607.5 247.5 581.5 247.5Z" stroke="#C0504D" stroke-width="3.4375" stroke-linejoin="round" stroke-miterlimit="10" fill="#C0504D"/><path d="M723.5 186.5 749.5 186.5 749.5 212.5 723.5 212.5Z" stroke="#C0504D" stroke-width="3.4375" stroke-linejoin="round" stroke-miterlimit="10" fill="#C0504D"/><path d="M865.5 145.5 891.5 145.5 891.5 171.5 865.5 171.5Z" stroke="#C0504D" stroke-width="3.4375" stroke-linejoin="round" stroke-miterlimit="10" fill="#C0504D"/><path d="M1007.5 101.5 1033.5 101.5 1033.5 127.5 1007.5 127.5Z" stroke="#C0504D" stroke-width="3.4375" stroke-linejoin="round" stroke-miterlimit="10" fill="#C0504D"/><path d="M1150.5 63.5005 1176.5 63.5005 1176.5 89.4999 1150.5 89.4999Z" stroke="#C0504D" stroke-width="3.4375" stroke-linejoin="round" stroke-miterlimit="10" fill="#C0504D"/><path d="M1292.5 36.5003 1318.5 36.5003 1318.5 62.4997 1292.5 62.4997Z" stroke="#C0504D" stroke-width="3.4375" stroke-linejoin="round" stroke-miterlimit="10" fill="#C0504D"/><path d="M1434.5 63.5005 1460.5 63.5005 1460.5 89.4999 1434.5 89.4999Z" stroke="#C0504D" stroke-width="3.4375" stroke-linejoin="round" stroke-miterlimit="10" fill="#C0504D"/></g><g><path d="M311 322C334.708 331.05 405.833 358.2 453.25 376.3 500.667 394.4 548.083 412.5 595.5 430.6 642.917 448.7 690.333 475.85 737.75 484.9 785.167 493.95 832.583 484.9 880 484.9 927.416 484.9 974.833 484.9 1022.25 484.9 1069.67 484.9 1117.08 484.9 1164.5 484.9 1211.92 484.9 1259.33 503 1306.75 484.9 1354.17 466.8 1401.58 412.5 1449 376.3" stroke="#9BBB59" stroke-width="8.02083" stroke-linecap="round" stroke-linejoin="round" stroke-miterlimit="10" fill="none"/></g><g><path d="M310.5 299.5 333.499 345.499 287.5 345.499Z" stroke="#9BBB59" stroke-width="3.4375" stroke-linejoin="round" stroke-miterlimit="10" fill="#9BBB59"/><path d="M453.5 353.5 476.499 399.499 430.5 399.499Z" stroke="#9BBB59" stroke-width="3.4375" stroke-linejoin="round" stroke-miterlimit="10" fill="#9BBB59"/><path d="M595.5 407.5 618.499 453.499 572.5 453.499Z" stroke="#9BBB59" stroke-width="3.4375" stroke-linejoin="round" stroke-miterlimit="10" fill="#9BBB59"/><path d="M737.5 462.5 760.5 508.499 714.5 508.499Z" stroke="#9BBB59" stroke-width="3.4375" stroke-linejoin="round" stroke-miterlimit="10" fill="#9BBB59"/><path d="M879.5 462.5 902.5 508.499 856.5 508.499Z" stroke="#9BBB59" stroke-width="3.4375" stroke-linejoin="round" stroke-miterlimit="10" fill="#9BBB59"/><path d="M1021.5 462.5 1044.5 508.499 998.5 508.499Z" stroke="#9BBB59" stroke-width="3.4375" stroke-linejoin="round" stroke-miterlimit="10" fill="#9BBB59"/><path d="M1164.5 462.5 1187.5 508.499 1141.5 508.499Z" stroke="#9BBB59" stroke-width="3.4375" stroke-linejoin="round" stroke-miterlimit="10" fill="#9BBB59"/><path d="M1306.5 462.5 1329.5 508.499 1283.5 508.499Z" stroke="#9BBB59" stroke-width="3.4375" stroke-linejoin="round" stroke-miterlimit="10" fill="#9BBB59"/><path d="M1448.5 353.5 1471.5 399.499 1425.5 399.499Z" stroke="#9BBB59" stroke-width="3.4375" stroke-linejoin="round" stroke-miterlimit="10" fill="#9BBB59"/></g><g clip-path="url(#clip2)"><path d="M311 77.7101C334.708 73.18 405.833 55.0599 453.25 50.5302 500.667 46.0001 548.083 46.0001 595.5 50.5302 642.917 55.0599 690.333 59.59 737.75 77.7101 785.167 95.8299 832.583 118.48 880 159.25 927.416 200.02 974.833 272.5 1022.25 322.33 1069.67 372.16 1117.08 431.049 1164.5 458.23 1211.92 485.41 1259.33 499 1306.75 485.41 1354.17 471.82 1401.58 412.93 1449 376.69" stroke="#8064A2" stroke-width="8.02083" stroke-linecap="round" stroke-linejoin="round" stroke-miterlimit="10" fill="none"/></g><g><path d="M330.999 97.9996 289.999 56.9997M289.999 97.9996 330.999 56.9997" stroke="#8064A2" stroke-width="3.4375" stroke-linejoin="round" stroke-miterlimit="10" fill="none"/><path d="M473.999 70.9994 432.999 29.9995M432.999 70.9994 473.999 29.9995" stroke="#8064A2" stroke-width="3.4375" stroke-linejoin="round" stroke-miterlimit="10" fill="none"/><path d="M615.999 70.9994 574.999 29.9995M574.999 70.9994 615.999 29.9995" stroke="#8064A2" stroke-width="3.4375" stroke-linejoin="round" stroke-miterlimit="10" fill="none"/><path d="M758 97.9996 717 56.9997M717 97.9996 758 56.9997" stroke="#8064A2" stroke-width="3.4375" stroke-linejoin="round" stroke-miterlimit="10" fill="none"/><path d="M900 179.999 859 139M859 179.999 900 139" stroke="#8064A2" stroke-width="3.4375" stroke-linejoin="round" stroke-miterlimit="10" fill="none"/><path d="M1042 342.999 1001 301.999M1001 342.999 1042 301.999" stroke="#8064A2" stroke-width="3.4375" stroke-linejoin="round" stroke-miterlimit="10" fill="none"/><path d="M1185 478.999 1144 438M1144 478.999 1185 438" stroke="#8064A2" stroke-width="3.4375" stroke-linejoin="round" stroke-miterlimit="10" fill="none"/><path d="M1327 505.999 1286 464.999M1286 505.999 1327 464.999" stroke="#8064A2" stroke-width="3.4375" stroke-linejoin="round" stroke-miterlimit="10" fill="none"/><path d="M1469 396.999 1428 355.999M1428 396.999 1469 355.999" stroke="#8064A2" stroke-width="3.4375" stroke-linejoin="round" stroke-miterlimit="10" fill="none"/></g><g><path d="M311 321.973C334.708 331.027 405.833 358.189 453.25 376.297 500.667 394.405 548.083 412.513 595.5 430.622 642.917 448.729 690.333 475.892 737.75 484.946 785.167 494 832.583 484.946 880 484.946 927.416 484.946 974.833 489.473 1022.25 484.946 1069.67 480.419 1117.08 484.946 1164.5 457.784 1211.92 430.621 1259.33 371.77 1306.75 321.973 1354.17 272.176 1401.58 213.324 1449 159" stroke="#4BACC6" stroke-width="8.02083" stroke-linecap="round" stroke-linejoin="round" stroke-miterlimit="10" fill="none"/></g><g><path d="M330.999 342.999 289.999 301.999M310.5 301.999 310.5 342.999M289.999 342.999 330.999 301.999" stroke="#4BACC6" stroke-width="3.4375" stroke-linejoin="round" stroke-miterlimit="10" fill="none"/><path d="M473.999 396.999 432.999 355.999M453.5 355.999 453.5 396.999M432.999 396.999 473.999 355.999" stroke="#4BACC6" stroke-width="3.4375" stroke-linejoin="round" stroke-miterlimit="10" fill="none"/><path d="M615.999 450.999 574.999 409.999M595.5 409.999 595.5 450.999M574.999 450.999 615.999 409.999" stroke="#4BACC6" stroke-width="3.4375" stroke-linejoin="round" stroke-miterlimit="10" fill="none"/><path d="M758 505.999 717 464.999M737.5 464.999 737.5 505.999M717 505.999 758 464.999" stroke="#4BACC6" stroke-width="3.4375" stroke-linejoin="round" stroke-miterlimit="10" fill="none"/><path d="M900 505.999 859 464.999M879.5 464.999 879.5 505.999M859 505.999 900 464.999" stroke="#4BACC6" stroke-width="3.4375" stroke-linejoin="round" stroke-miterlimit="10" fill="none"/><path d="M1042 505.999 1001 464.999M1021.5 464.999 1021.5 505.999M1001 505.999 1042 464.999" stroke="#4BACC6" stroke-width="3.4375" stroke-linejoin="round" stroke-miterlimit="10" fill="none"/><path d="M1185 478.999 1144 438M1164.5 438 1164.5 478.999M1144 478.999 1185 438" stroke="#4BACC6" stroke-width="3.4375" stroke-linejoin="round" stroke-miterlimit="10" fill="none"/><path d="M1327 342.999 1286 301.999M1306.5 301.999 1306.5 342.999M1286 342.999 1327 301.999" stroke="#4BACC6" stroke-width="3.4375" stroke-linejoin="round" stroke-miterlimit="10" fill="none"/><path d="M1469 179.999 1428 139M1448.5 139 1448.5 179.999M1428 179.999 1469 139" stroke="#4BACC6" stroke-width="3.4375" stroke-linejoin="round" stroke-miterlimit="10" fill="none"/></g><g clip-path="url(#clip3)"><path d="M311 77.6266C334.708 73.1084 405.833 55.0361 453.25 50.5182 500.667 46.0001 548.083 46.0001 595.5 50.5182 642.917 55.0361 690.333 59.5542 737.75 77.6266 785.167 95.6986 832.583 136.361 880 158.952 927.416 181.542 974.833 198.711 1022.25 213.169 1069.67 227.626 1117.08 236.662 1164.5 245.699 1211.92 254.735 1259.33 263.771 1306.75 267.385 1354.17 271 1401.58 267.385 1449 267.385" stroke="#F79646" stroke-width="8.02083" stroke-linecap="round" stroke-linejoin="round" stroke-miterlimit="10" fill="none"/></g><g><path d="M322.5 76.5002C322.5 83.6797 316.679 89.4999 309.5 89.4999 302.32 89.4999 296.5 83.6797 296.5 76.5002 296.5 69.3206 302.32 63.5005 309.5 63.5005 316.679 63.5005 322.5 69.3206 322.5 76.5002Z" stroke="#F79646" stroke-width="3.4375" stroke-linejoin="round" stroke-miterlimit="10" fill="#F79646"/><path d="M465.5 49.5C465.5 56.6795 459.679 62.4997 452.5 62.4997 445.32 62.4997 439.5 56.6795 439.5 49.5 439.5 42.3205 445.32 36.5003 452.5 36.5003 459.679 36.5003 465.5 42.3205 465.5 49.5Z" stroke="#F79646" stroke-width="3.4375" stroke-linejoin="round" stroke-miterlimit="10" fill="#F79646"/><path d="M607.5 49.5C607.5 56.6795 601.679 62.4997 594.5 62.4997 587.32 62.4997 581.5 56.6795 581.5 49.5 581.5 42.3205 587.32 36.5003 594.5 36.5003 601.679 36.5003 607.5 42.3205 607.5 49.5Z" stroke="#F79646" stroke-width="3.4375" stroke-linejoin="round" stroke-miterlimit="10" fill="#F79646"/><path d="M749.5 76.5002C749.5 83.6797 743.68 89.4999 736.5 89.4999 729.321 89.4999 723.5 83.6797 723.5 76.5002 723.5 69.3206 729.321 63.5005 736.5 63.5005 743.68 63.5005 749.5 69.3206 749.5 76.5002Z" stroke="#F79646" stroke-width="3.4375" stroke-linejoin="round" stroke-miterlimit="10" fill="#F79646"/><path d="M891.5 158.5C891.5 165.68 885.68 171.5 878.5 171.5 871.321 171.5 865.5 165.68 865.5 158.5 865.5 151.32 871.321 145.5 878.5 145.5 885.68 145.5 891.5 151.32 891.5 158.5Z" stroke="#F79646" stroke-width="3.4375" stroke-linejoin="round" stroke-miterlimit="10" fill="#F79646"/><path d="M1033.5 212.5C1033.5 219.679 1027.68 225.5 1020.5 225.5 1013.32 225.5 1007.5 219.679 1007.5 212.5 1007.5 205.32 1013.32 199.5 1020.5 199.5 1027.68 199.5 1033.5 205.32 1033.5 212.5Z" stroke="#F79646" stroke-width="3.4375" stroke-linejoin="round" stroke-miterlimit="10" fill="#F79646"/><path d="M1176.5 245.5C1176.5 252.679 1170.68 258.5 1163.5 258.5 1156.32 258.5 1150.5 252.679 1150.5 245.5 1150.5 238.32 1156.32 232.5 1163.5 232.5 1170.68 232.5 1176.5 238.32 1176.5 245.5Z" stroke="#F79646" stroke-width="3.4375" stroke-linejoin="round" stroke-miterlimit="10" fill="#F79646"/><path d="M1318.5 266.5C1318.5 273.679 1312.68 279.5 1305.5 279.5 1298.32 279.5 1292.5 273.679 1292.5 266.5 1292.5 259.32 1298.32 253.5 1305.5 253.5 1312.68 253.5 1318.5 259.32 1318.5 266.5Z" stroke="#F79646" stroke-width="3.4375" stroke-linejoin="round" stroke-miterlimit="10" fill="#F79646"/><path d="M1460.5 266.5C1460.5 273.679 1454.68 279.5 1447.5 279.5 1440.32 279.5 1434.5 273.679 1434.5 266.5 1434.5 259.32 1440.32 253.5 1447.5 253.5 1454.68 253.5 1460.5 259.32 1460.5 266.5Z" stroke="#F79646" stroke-width="3.4375" stroke-linejoin="round" stroke-miterlimit="10" fill="#F79646"/></g><g><text fill="#595959" font-family="Calibri,Calibri_MSFontService,sans-serif" font-weight="400" font-size="41" transform="matrix(1 0 0 1 38.5339 606)">0</text></g><g><text fill="#595959" font-family="Calibri,Calibri_MSFontService,sans-serif" font-weight="400" font-size="41" transform="matrix(1 0 0 1 38.5339 497)">1</text></g><g><text fill="#595959" font-family="Calibri,Calibri_MSFontService,sans-serif" font-weight="400" font-size="41" transform="matrix(1 0 0 1 38.5339 388)">2</text></g><g><text fill="#595959" font-family="Calibri,Calibri_MSFontService,sans-serif" font-weight="400" font-size="41" transform="matrix(1 0 0 1 38.5339 279)">3</text></g><g><text fill="#595959" font-family="Calibri,Calibri_MSFontService,sans-serif" font-weight="400" font-size="41" transform="matrix(1 0 0 1 38.5339 171)">4</text></g><g><text fill="#595959" font-family="Calibri,Calibri_MSFontService,sans-serif" font-weight="400" font-size="41" transform="matrix(1 0 0 1 38.5339 62)">5</text></g><g><text fill="#595959" font-family="SimSun,SimSun_MSFontService,sans-serif" font-weight="400" font-size="37" transform="matrix(1 0 0 1 126.634 654)">首调</text></g><g><text fill="#595959" font-family="SimSun,SimSun_MSFontService,sans-serif" font-weight="400" font-size="37" transform="matrix(1 0 0 1 411.032 654)">呼调</text></g><g><text fill="#595959" font-family="SimSun,SimSun_MSFontService,sans-serif" font-weight="400" font-size="37" transform="matrix(1 0 0 1 837.629 654)">韵调</text></g><g><path d="M107 728 195 728" stroke="#4F81BD" stroke-width="8.02083" stroke-linecap="round" stroke-linejoin="round" stroke-miterlimit="10" fill="none" fill-rule="evenodd"/></g><g><path d="M151.5 716.5 162.499 727.5 151.5 738.499 140.5 727.5Z" stroke="#4F81BD" stroke-width="3.4375" stroke-linejoin="round" stroke-miterlimit="10" fill="#4F81BD"/></g><g><text fill="#595959" font-family="SimSun,SimSun_MSFontService,sans-serif" font-weight="400" font-size="41" transform="matrix(1 0 0 1 204.409 741)">阴平</text></g><g><path d="M314 728 402 728" stroke="#C0504D" stroke-width="8.02083" stroke-linecap="round" stroke-linejoin="round" stroke-miterlimit="10" fill="none" fill-rule="evenodd"/></g><g><path d="M346.512 716.524 368.512 716.524 368.512 738.524 346.512 738.524Z" stroke="#C0504D" stroke-width="3.4375" stroke-linejoin="round" stroke-miterlimit="10" fill="#C0504D"/></g><g><text fill="#595959" font-family="SimSun,SimSun_MSFontService,sans-serif" font-weight="400" font-size="41" transform="matrix(1 0 0 1 410.845 741)">阳平</text></g><g><path d="M520 728 608 728" stroke="#9BBB59" stroke-width="8.02083" stroke-linecap="round" stroke-linejoin="round" stroke-miterlimit="10" fill="none" fill-rule="evenodd"/></g><g><path d="M563.5 716.5 574.499 738.499 552.5 738.499Z" stroke="#9BBB59" stroke-width="3.4375" stroke-linejoin="round" stroke-miterlimit="10" fill="#9BBB59"/></g><g><text fill="#595959" font-family="SimSun,SimSun_MSFontService,sans-serif" font-weight="400" font-size="41" transform="matrix(1 0 0 1 617.281 741)">上声</text></g><g><path d="M726 728 814 728" stroke="#8064A2" stroke-width="8.02083" stroke-linecap="round" stroke-linejoin="round" stroke-miterlimit="10" fill="none" fill-rule="evenodd"/></g><g><path d="M781.5 738.5 759.5 715.5M759.5 738.5 781.5 715.5" stroke="#8064A2" stroke-width="3.4375" stroke-linejoin="round" stroke-miterlimit="10" fill="none"/></g><g><text fill="#595959" font-family="SimSun,SimSun_MSFontService,sans-serif" font-weight="400" font-size="41" transform="matrix(1 0 0 1 823.717 741)">去声</text></g><g><path d="M933 728 1021 728" stroke="#4BACC6" stroke-width="8.02083" stroke-linecap="round" stroke-linejoin="round" stroke-miterlimit="10" fill="none" fill-rule="evenodd"/></g><g><path d="M987.5 738.5 964.5 715.5M976.532 715.5 976.532 738.5M964.5 738.5 987.5 715.5" stroke="#4BACC6" stroke-width="3.4375" stroke-linejoin="round" stroke-miterlimit="10" fill="none"/></g><g><text fill="#595959" font-family="SimSun,SimSun_MSFontService,sans-serif" font-weight="400" font-size="41" transform="matrix(1 0 0 1 1030.15 741)">上声变调</text></g><g><path d="M1222 728 1310 728" stroke="#F79646" stroke-width="8.02083" stroke-linecap="round" stroke-linejoin="round" stroke-miterlimit="10" fill="none" fill-rule="evenodd"/></g><g><path d="M1276.02 726.999C1276.02 733.075 1271.31 737.999 1265.5 737.999 1259.69 737.999 1254.98 733.075 1254.98 726.999 1254.98 720.924 1259.69 716 1265.5 716 1271.31 716 1276.02 720.924 1276.02 726.999Z" stroke="#F79646" stroke-width="3.4375" stroke-linejoin="round" stroke-miterlimit="10" fill="#F79646"/></g><g><text fill="#595959" font-family="SimSun,SimSun_MSFontService,sans-serif" font-weight="400" font-size="41" transform="matrix(1 0 0 1 1319.09 741)">去声变调</text></g><rect x="0.499836" y="0.499836" width="1575" height="794" stroke="#D9D9D9" stroke-width="3.4375" stroke-linejoin="round" stroke-miterlimit="10" fill="none"/></g></svg>